<svg width="13.866699" height="16.000000" viewBox="0 0 13.8667 16" fill="none" xmlns="http://www.w3.org/2000/svg" xmlns:xlink="http://www.w3.org/1999/xlink">
	<desc>
			Created with Pixso.
	</desc>
	<defs/>
	<rect id="Компоненты 1" width="13.866667" height="16.000000" fill="#FFFFFF" fill-opacity="0"/>
	<path id="Vector" d="M3.19 6.4C2.35 6.4 1.53 6.06 0.93 5.46C0.33 4.86 0 4.04 0 3.2C0 2.35 0.33 1.53 0.93 0.93C1.53 0.33 2.35 0 3.19 0L10.66 0C11.51 0 12.32 0.33 12.92 0.93C13.52 1.53 13.86 2.35 13.86 3.2C13.86 4.04 13.52 4.86 12.92 5.46C12.32 6.06 11.51 6.4 10.66 6.4L8.53 6.4L8.53 3.73C8.53 3.02 8.25 2.34 7.75 1.84C7.25 1.34 6.57 1.06 5.86 1.06C5.15 1.06 4.48 1.34 3.98 1.84C3.48 2.34 3.19 3.02 3.19 3.73L3.19 6.4Z" fill="#FFFFFF" fill-opacity="1.000000" fill-rule="nonzero"/>
	<path id="Vector" d="M5.86 2.13C5.44 2.13 5.03 2.3 4.73 2.6C4.43 2.9 4.26 3.3 4.26 3.73L4.26 8.58C3.66 8.7 3.12 9.03 2.73 9.51C2.34 9.98 2.13 10.58 2.13 11.2C2.13 12.47 2.63 13.69 3.53 14.59C4.43 15.49 5.66 16 6.93 16L7.46 16C8.88 16 10.23 15.43 11.23 14.43C12.23 13.43 12.8 12.08 12.8 10.66L12.8 9.75C12.8 9.14 12.55 8.56 12.12 8.13C11.69 7.7 11.11 7.46 10.5 7.46L7.46 7.46L7.46 3.73C7.46 3.3 7.29 2.9 6.99 2.6C6.69 2.3 6.29 2.13 5.86 2.13Z" fill="#FFFFFF" fill-opacity="1.000000" fill-rule="nonzero"/>
</svg>
